<svg id="Capa_1" data-name="Capa 1" xmlns="http://www.w3.org/2000/svg" viewBox="0 0 358.52 59.29">
    <defs>
        <style>
            #letra{
                fill: #FFF;
            }        
            
        
        </style>
    </defs>
    
    <path id="letra" d="M33.82,115.74l18.72-41.4H68.11L41.76,133.51H26.3L0,74.34H15.28Z" transform="translate(0 -74.22)" style="fill:#302c28" />
    <path id="letra" d="M117.33,74.34l-6.51,12.91H69.36V74.34Zm-6.51,22.74v12.68H69.36V97.08Zm3.55,23.52v12.85h-45V120.6Z" transform="translate(0 -74.22)" style="fill:#302c28" />
    <path id="letra" d="M118.52,133.45V74.34H152.4a19.67,19.67,0,0,1,13.53,5.54q5.25,5.18,5.24,13.83-.28,14.63-13.5,18.12l14.93,21.62h-18l-21.32-30.27v30.27ZM133.33,100h17.82c3-.75,4.6-2.83,4.68-6.22-.08-3.79-1.79-6-5.15-6.52H133.33Z" transform="translate(0 -74.22)" style="fill:#302c28" />
    <path id="letra" d="M210.5,97.32q15.65,2.61,15.76,16.29v1.66q-.12,16.29-15.64,18.18H173l5.86-12.79H207c3-.52,4.56-2.43,4.56-5.75q0-4.32-4.86-5.15H188.77Q173.13,107.15,173,93.53V91.87q.12-15.63,15.64-17.59h37.67l-6,12.73H192.08c-2.92.44-4.36,2.25-4.32,5.45,0,2.89,1.62,4.5,4.86,4.86Z" transform="translate(0 -74.22)" style="fill:#302c28" />
    <path id="letra" d="M244.92,74.22v29.5a24,24,0,0,0,3,11.43q3,5.63,8.79,5.63,5.34,0,8.21-5a23.92,23.92,0,0,0,2.87-12V74.22h15.64v29.5q0,13.26-7.08,21.44t-20,8.17q-12.8,0-19.93-8.5t-7.14-21.11l-.06-29.5Z" transform="translate(0 -74.22)" style="fill:#302c28" />
    <path id="letra" d="M302.19,74.22v59.23H287.38V74.22Z" transform="translate(0 -74.22)" style="fill:#302c28" />
    <path id="letra" d="M322.92,87H305.15V74.28h53.37l-6,12.73H337.73v46.44H322.92Z" transform="translate(0 -74.22)" style="fill:#302c28" />
</svg>