<svg xmlns="http://www.w3.org/2000/svg" width="550" height="440" viewBox="0 0 550 440">
  <g id="Grupo_13" data-name="Grupo 13" transform="translate(-4020 -2449)">
    <rect id="Rectángulo_21" data-name="Rectángulo 21" width="550" height="440" transform="translate(4020 2449)" fill="#fff"/>
    <text id="INNOVACIÓN" transform="translate(4499 2583)" fill="#373737" font-size="44" font-family="LEMONMILK-Regular, LEMON MILK"><tspan x="-290.791" y="0">INNOVACIÓN</tspan></text>
    <path id="Trazado_57" data-name="Trazado 57" d="M0-75.131,550,220H0Z" transform="translate(4020 2669)" fill="#343d47"/>
    <g id="code-slash-svgrepo-com" transform="translate(4143.65 2748.542)">
      <path id="Trazado_58" data-name="Trazado 58" d="M22.385,3.05,8.668,53.546l5.69,1.5,13.717-50.5Z" transform="translate(14.569 0)" fill="#f2f2f2"/>
      <path id="Trazado_59" data-name="Trazado 59" d="M20.377,42.389l4-4.184,0-.055-15-13.812L23.484,9.593,19.189,5.639,1.05,24.6Z" transform="translate(0 5.036)" fill="#f2f2f2"/>
      <path id="Trazado_60" data-name="Trazado 60" d="M19.032,42.389l-4-4.184v-.055l15-13.812L15.925,9.593,20.22,5.639,38.359,24.6Z" transform="translate(26.69 5.036)" fill="#f2f2f2"/>
    </g>
  </g>
</svg>
