<svg id="Capa_1" data-name="Capa 1" xmlns="http://www.w3.org/2000/svg" viewBox="0 0 1048.53 868.06">
    <g id="sombras_der" data-name="sombras der">
        <polygon points="966.47 834.08 654.64 868.06 1048.53 868.06 781.12 404.64 743.25 429.06 966.47 834.08" style="fill:#FFFF" />
        <polygon points="753.47 356.73 547.62 0 601.13 171.19 716.52 380.56 753.47 356.73" style="fill:#FFFF" />
    </g>
    <g id="claros_der" data-name="claros der">
        <polygon points="654.64 868.06 966.47 834.08 743.25 429.06 692.05 462.08 791.45 780.09 654.64 868.06" style="fill:#FFFF" />
        <polygon points="601.13 171.19 674.95 407.36 716.52 380.56 601.13 171.19" style="fill:#FFFF" />
    </g>
    <g id="sombras_izq" data-name="sombras izq">
        <polygon points="177.95 656.61 137.19 630.32 0 868.06 326.36 868.06 112.06 816.74 177.95 656.61" style="fill:#FFFF" />
        <polygon points="316.95 318.81 164.84 582.41 199.33 604.65 316.95 318.81" style="fill:#FFFF" />
    </g>
    <g id="claros_izq" data-name="claros izq">
        <polygon points="211.53 678.26 177.95 656.61 112.06 816.74 326.36 868.06 181.1 755.04 211.53 678.26" style="fill:#FFFF" />
        <polygon points="232.28 625.9 435.23 113.83 316.95 318.81 199.33 604.65 232.28 625.9" style="fill:#FFFF" />
    </g>
    <polygon points="498.38 109.98 321.19 752.9 464.17 868.06 502.73 181.69 498.38 109.98" style="fill:#FFFF" />
    <polygon points="508.9 71.81 505.72 83.33 507.4 98.38 508.9 71.81" style="fill:#FFFF" />
    <polygon points="464.17 868.06 543.81 859.55 502.73 181.69 464.17 868.06" style="fill:#FFFF" />
    <polygon points="591.78 854.42 616.31 851.8 508.9 71.81 507.4 98.38 591.78 854.42" style="fill:#FFFF" />
</svg>