<svg xmlns="http://www.w3.org/2000/svg" width="550" height="440" viewBox="0 0 550 440">
  <g id="Grupo_11" data-name="Grupo 11" transform="translate(-4025 -3437)">
    <rect id="Rectángulo_21" data-name="Rectángulo 21" width="550" height="440" transform="translate(4025 3437)" fill="#fff"/>
    <text id="SERVICIO" transform="translate(4295 3571)" fill="#373737" font-size="44" font-family="LEMONMILK-Regular, LEMON MILK"><tspan x="-209.258" y="0">SERVICIO</tspan></text>
    <path id="Trazado_57" data-name="Trazado 57" d="M550-75.131,0,220H550Z" transform="translate(4025 3657)" fill="#343d47"/>
    <path id="git-fork-svgrepo-com" d="M7,10.111a7.111,7.111,0,1,1,10.667,6.16V42.252h6.37a7.111,7.111,0,0,0,7.111-7.111V30.676a7.111,7.111,0,1,1,7.111-.085v4.55A14.222,14.222,0,0,1,24.036,49.363h-6.37v4.366a7.111,7.111,0,1,1-7.111,0V16.271A7.108,7.108,0,0,1,7,10.111Z" transform="translate(4399.7 3731.918)" fill="#f2f2f2"/>
  </g>
</svg>
