<svg id="Shape" xmlns="http://www.w3.org/2000/svg" width="26" height="35" viewBox="0 0 26 35">
  <path id="Trazado_41" data-name="Trazado 41" d="M0,7H26v7H0ZM0,21H26v7H0Z" fill="#f2f2f2" fill-rule="evenodd"/>
  <path id="Trazado_42" data-name="Trazado 42" d="M0,0H26V7H0ZM0,14H26v7H0ZM0,28H26v7H0Z" fill="#343d47" fill-rule="evenodd"/>
  <path id="Trazado_43" data-name="Trazado 43" d="M3.5,30A1.5,1.5,0,1,1,2,31.5,1.5,1.5,0,0,1,3.5,30Zm0-7A1.5,1.5,0,1,1,2,24.5,1.5,1.5,0,0,1,3.5,23Zm0-7A1.5,1.5,0,1,1,2,17.5,1.5,1.5,0,0,1,3.5,16Zm0-7A1.5,1.5,0,1,1,2,10.5,1.5,1.5,0,0,1,3.5,9Zm0-7A1.5,1.5,0,1,1,2,3.5,1.5,1.5,0,0,1,3.5,2Z" fill="#fff" fill-rule="evenodd"/>
</svg>
