<svg xmlns="http://www.w3.org/2000/svg" width="550" height="440" viewBox="0 0 550 440">
  <g id="Grupo_12" data-name="Grupo 12" transform="translate(-4020 -2943)">
    <rect id="Rectángulo_21" data-name="Rectángulo 21" width="550" height="440" transform="translate(4020 2943)" fill="#343d47"/>
    <text id="TECNOLOGÍA" transform="translate(4496 3077)" fill="#f2f2f2" font-size="44" font-family="LEMONMILK-Regular, LEMON MILK"><tspan x="-305.314" y="0">TECNOLOGÍA</tspan></text>
    <path id="Trazado_57" data-name="Trazado 57" d="M0-75.131,550,220H0Z" transform="translate(4020 3163)" fill="#f2f2f2"/>
    <path id="Trazado_63" data-name="Trazado 63" d="M5.033,26.372l3.723,3.723L19.925,18.926,8.756,7.757,5.033,11.48l7.446,7.446Z" transform="translate(4152.853 3254.416)"/>
    <path id="Trazado_64" data-name="Trazado 64" d="M21.53,14H11v5.265H21.53Z" transform="translate(4162.819 3264.721)"/>
    <path id="Trazado_65" data-name="Trazado 65" d="M5.333,2A5.333,5.333,0,0,0,0,7.333V50a5.333,5.333,0,0,0,5.333,5.333H58.667A5.333,5.333,0,0,0,64,50V7.333A5.333,5.333,0,0,0,58.667,2ZM58.667,7.333H5.333V50H58.667Z" transform="translate(4144.411 3244.676)" fill-rule="evenodd"/>
  </g>
</svg>
