<svg xmlns="http://www.w3.org/2000/svg" width="30.003" height="36" viewBox="0 0 30.003 36">
  <g id="Vivid-Icons-soft-t" transform="translate(-357.998 -487)">
    <g id="Icons" transform="translate(37 169)">
      <g id="refresh" transform="translate(312 312)">
        <g id="Shape" transform="translate(8 6)">
          <path id="Trazado_51" data-name="Trazado 51" d="M7.518,17.936A8.576,8.576,0,0,0,16,26.606V28.94l-.944,4.286A15.186,15.186,0,0,1,1,17.936,14.953,14.953,0,0,1,13,3h2l.048,6.323A8.6,8.6,0,0,0,7.518,17.936Z" fill="#f2f2f2" fill-rule="evenodd"/>
          <path id="Trazado_52" data-name="Trazado 52" d="M16,33.275c-.319,0-.63-.029-.944-.049L16,28.94V26.606a8.672,8.672,0,0,0,0-17.34,8.345,8.345,0,0,0-.949.058L15,7s-.658-4.4,1-4.4A15.172,15.172,0,0,1,31,17.936,15.172,15.172,0,0,1,16,33.275Z" fill="#343d47" fill-rule="evenodd"/>
          <path id="Trazado_53" data-name="Trazado 53" d="M18,36V22l-7,7Z" fill="#343d47" fill-rule="evenodd"/>
          <path id="Trazado_54" data-name="Trazado 54" d="M13.989,0V13l6.024-6.494Z" fill="#f2f2f2" fill-rule="evenodd"/>
        </g>
      </g>
    </g>
  </g>
</svg>
