<svg xmlns="http://www.w3.org/2000/svg" width="41" height="29.016" viewBox="0 0 41 29.016">
  <g id="Vivid-Icons-soft" transform="translate(-665 -178.993)">
    <g id="Icons" transform="translate(37 169)">
      <g id="graph-poly" transform="translate(624)">
        <g id="Shape" transform="translate(4 9)">
          <path id="Trazado_49" data-name="Trazado 49" d="M32.214,19.786a7,7,0,1,1-12.428,0l-5.02-5.02a6.925,6.925,0,0,1-5.612-.921L3,20,0,17l6.477-6.477a7,7,0,1,1,11.947,1.9l4.363,4.363a6.965,6.965,0,0,1,6.428,0L38,8l3,3Z" fill="#343d47" fill-rule="evenodd"/>
          <path id="Trazado_50" data-name="Trazado 50" d="M13,5a3,3,0,1,1-3,3A3,3,0,0,1,13,5ZM26,20a3,3,0,1,1-3,3A3,3,0,0,1,26,20Z" fill="#f2f2f2" fill-rule="evenodd"/>
        </g>
      </g>
    </g>
  </g>
</svg>
